<svg width="44" height="39" viewBox="0 0 44 39" fill="none" xmlns="http://www.w3.org/2000/svg">
<path fill-rule="evenodd" clip-rule="evenodd" d="M4.44528 0.639873C3.93128 0.737175 3.54659 0.917539 3.4307 1.11557C3.21793 1.47899 3.27068 1.76739 3.60356 2.06146C3.88436 2.30952 3.92386 2.3216 4.29986 2.27508C4.51913 2.24786 5.07103 2.20551 5.52646 2.18083C6.29822 2.13908 6.37122 2.12118 6.60256 1.91681C7.0563 1.51589 6.89333 0.863706 6.28851 0.660601C6.08384 0.591855 4.77656 0.577092 4.44528 0.639873ZM9.15932 0.73121C8.79572 0.931184 8.6573 1.30936 8.82104 1.65562C9.03533 2.10866 9.19476 2.15638 10.4947 2.15638C11.1689 2.15638 11.7402 2.12155 11.8606 2.07302C12.3715 1.86745 12.4671 1.16777 12.0335 0.807561C11.829 0.637636 11.7524 0.626675 10.621 0.606469C9.55448 0.587456 9.39614 0.600952 9.15932 0.73121ZM14.7844 0.643228C14.3009 0.799359 14.0698 1.34537 14.3162 1.74942C14.5339 2.10649 14.746 2.15638 16.0478 2.15638C17.1715 2.15638 17.2291 2.14884 17.4678 1.97146C17.7741 1.74375 17.8608 1.41181 17.7018 1.07553C17.5091 0.668132 17.2293 0.589693 15.9913 0.596478C15.3971 0.599684 14.854 0.620785 14.7844 0.643228ZM20.1339 0.708618C19.6142 0.935136 19.5155 1.55265 19.9393 1.92695L20.199 2.15638H21.4496H22.7001L22.9623 1.94007C23.4378 1.54766 23.2783 0.867508 22.6622 0.660601C22.3071 0.541303 20.4363 0.576868 20.1339 0.708618ZM25.5877 1.53394C25.0968 1.6768 24.828 1.95871 24.828 2.33092C24.828 2.43098 24.9621 2.67592 25.1259 2.87522C25.2897 3.07445 25.5327 3.4389 25.6659 3.68503C25.9657 4.23917 26.1546 4.39456 26.5915 4.44638C26.8987 4.48276 26.9635 4.46025 27.2311 4.22381C27.6238 3.87688 27.6257 3.5796 27.2396 2.87254C26.8924 2.23645 26.416 1.72675 26.0386 1.58747C25.8864 1.53125 25.7511 1.48801 25.7381 1.49121C25.725 1.49442 25.6573 1.51366 25.5877 1.53394ZM1.39741 2.97506C0.921724 3.14483 0.689453 3.74714 0.689453 4.81068C0.689453 5.55973 0.822215 5.84761 1.2384 6.0012C1.61904 6.14168 1.99479 6.0651 2.25255 5.79452C2.42828 5.61005 2.46187 5.49717 2.46187 5.09156C2.46187 4.82582 2.50432 4.38136 2.55614 4.10392C2.63691 3.67206 2.63058 3.56558 2.51251 3.36382C2.29298 2.98878 1.82051 2.82407 1.39741 2.97506ZM26.185 6.33755L25.9253 6.56697V7.67175V8.77652L26.1701 9.00811C26.6143 9.42819 27.3842 9.28727 27.6184 8.74305C27.7543 8.42743 27.7166 6.79968 27.567 6.52119C27.3148 6.05176 26.6139 5.95863 26.185 6.33755ZM1.13703 7.83772C0.794616 7.98386 0.689453 8.32804 0.689453 9.30203C0.689453 9.79555 0.72507 10.2821 0.768705 10.3834C0.909486 10.7106 1.19307 10.88 1.59988 10.88C1.90752 10.88 2.01471 10.8399 2.21702 10.6485L2.46187 10.4169V9.3121V8.20732L2.20217 7.9779C1.92381 7.73192 1.51185 7.67771 1.13703 7.83772ZM26.2629 11.1037C26.102 11.2149 25.9173 11.2499 25.4854 11.2512C24.4041 11.2543 23.4884 11.7356 23.0046 12.555C22.8308 12.8493 22.7237 12.9561 22.6336 12.9248C22.3128 12.8136 21.6298 12.8106 21.1654 12.9184C20.2684 13.1265 19.492 13.7452 19.2099 14.4767L19.0804 14.8123L18.515 14.8507C17.4713 14.9218 16.6669 15.3938 16.2235 16.1957C16.0827 16.4502 15.9386 16.8394 15.9034 17.0604C15.8415 17.4492 15.8283 17.4652 15.5018 17.5512C14.1454 17.9083 13.2982 19.0931 13.5203 20.3223C13.6207 20.8775 13.8888 21.2866 14.5433 21.8835L15.122 22.411L15.1216 22.9646L15.1214 23.5182L14.9574 23.2806C14.7214 22.9388 14.5487 22.8844 13.6992 22.8844C12.9645 22.8844 12.9323 22.8916 12.6808 23.1138C12.3256 23.4276 12.3203 23.8261 12.6666 24.1686C12.8981 24.3975 12.9497 24.4127 13.5781 24.4379C14.4022 24.471 14.778 24.3517 14.9776 23.9938C15.1157 23.7462 15.1182 23.7599 15.121 24.7857C15.1254 26.353 15.4007 27.0586 16.3571 27.9542L16.8944 28.4574L16.8957 31.8409C16.897 35.5825 16.9202 35.7932 17.424 36.634C17.7727 37.216 18.6489 37.9901 19.3077 38.2981C20.34 38.7808 19.9334 38.7637 30.3985 38.7637C40.8636 38.7637 40.4569 38.7808 41.4893 38.2981C42.1481 37.9901 43.0243 37.216 43.373 36.634C43.9194 35.722 43.9001 36.0812 43.9001 26.8362C43.9001 17.5911 43.9194 17.9503 43.373 17.0383C43.0243 16.4563 42.1481 15.6822 41.4893 15.3742C40.5176 14.9199 40.3696 14.9087 35.3262 14.9075L30.7588 14.9064L29.2494 13.5605L27.7399 12.2145L27.6859 11.7928C27.6415 11.4466 27.5847 11.3338 27.3681 11.1629C27.047 10.9095 26.5801 10.8844 26.2629 11.1037ZM1.29815 12.6046C1.12986 12.6474 0.954218 12.7695 0.851924 12.9147C0.700341 13.13 0.685739 13.262 0.70743 14.223L0.731653 15.2918L1.00731 15.5092C1.41876 15.8337 1.95639 15.7891 2.31231 15.4009C2.52264 15.1716 2.53217 13.1642 2.32421 12.9019C2.21381 12.7627 1.70218 12.4981 1.59946 12.5271C1.58638 12.5308 1.45075 12.5657 1.29815 12.6046ZM26.1611 13.1047C26.824 13.5686 29.5312 16.0856 29.9134 16.5935C30.83 17.8114 31.2518 19.0234 31.2598 20.4612C31.2651 21.4204 31.1617 22.0591 30.8857 22.7726C29.961 25.1623 27.7422 26.9192 24.9436 27.4779C24.1839 27.6296 19.9589 27.7122 19.2197 27.5899C18.5854 27.4849 18.1298 27.2788 17.68 26.8932C17.1079 26.4028 16.9497 25.9918 16.9117 24.8976L16.8794 23.9656L18.0541 24.9908C19.1729 25.9672 19.2451 26.016 19.5695 26.016C20.1555 26.016 20.5606 25.5724 20.4546 25.0467C20.4302 24.926 19.547 24.0853 17.9481 22.6607C16.5903 21.451 15.4369 20.3879 15.385 20.2983C15.0728 19.7588 15.5354 19.0818 16.2163 19.0818C16.4097 19.0818 16.6508 19.1194 16.7523 19.1653C16.8536 19.2112 17.4524 19.6977 18.0827 20.2464C19.1723 21.1948 19.2458 21.2441 19.5695 21.2441C20.1562 21.2441 20.5645 20.7959 20.452 20.2755C20.4279 20.1645 19.8747 19.605 19.0751 18.883C17.7493 17.686 17.6845 17.6026 17.73 17.1527C17.7759 16.7008 18.3487 16.3521 18.8961 16.4428C19.1421 16.4836 19.3944 16.6532 20.0594 17.2248C20.5264 17.6262 21.0043 17.9868 21.1213 18.0261C21.7464 18.236 22.4243 17.6796 22.2578 17.0932C22.2267 16.9837 21.9426 16.6566 21.6266 16.3663C21.3106 16.0759 21.0092 15.7651 20.9567 15.6755C20.6422 15.1388 21.1053 14.459 21.7854 14.459C22.2462 14.459 22.4962 14.5843 23.0556 15.0953C23.3109 15.3286 23.6411 15.5657 23.7894 15.6222C24.3336 15.8298 24.9968 15.4261 24.9968 14.8873C24.9968 14.7909 24.8778 14.5459 24.7322 14.3431C24.4257 13.9163 24.3892 13.5463 24.6226 13.2317C24.9599 12.777 25.6153 12.7229 26.1611 13.1047ZM40.5424 16.7533C41.1846 17.0326 41.5552 17.3699 41.8685 17.9599L42.088 18.3735V26.8362V35.2989L41.8685 35.7124C41.5551 36.3025 41.1845 36.6397 40.5422 36.919L39.9815 37.1629H30.3985H20.8155L20.2548 36.919C19.6125 36.6397 19.2419 36.3025 18.9285 35.7124L18.709 35.2989L18.6821 32.2419L18.6552 29.1848L21.1719 29.2101C22.795 29.2264 23.9584 29.2039 24.4482 29.1469C25.8457 28.9842 27.1022 28.6109 28.2274 28.0242C30.4956 26.8412 32.1032 24.9706 32.7532 22.7577C33.318 20.8347 33.1829 19.0807 32.3267 17.2209C32.1482 16.833 32.0021 16.5038 32.0021 16.4893C32.0021 16.4748 33.7976 16.4733 35.9921 16.4862L39.9819 16.5094L40.5424 16.7533ZM1.21746 17.4401C1.11331 17.479 0.952024 17.6211 0.859098 17.7557C0.713339 17.967 0.690044 18.1318 0.689791 18.955C0.689369 20.0571 0.778158 20.2962 1.25241 20.4712C1.64251 20.6152 1.98078 20.5447 2.24859 20.2636C2.45512 20.0468 2.46187 20.0055 2.46187 18.9654C2.46187 17.8984 2.46035 17.8896 2.22977 17.6637C1.97656 17.4156 1.54089 17.3193 1.21746 17.4401ZM2.32497 22.0241C1.96947 22.1583 1.78666 22.4101 1.78666 22.7656C1.78666 23.0218 1.84178 23.1079 2.20158 23.4142C2.72191 23.8574 3.73615 24.3011 4.22854 24.3011C4.71959 24.3011 5.07829 23.993 5.07829 23.5713C5.07829 23.1801 4.83412 22.919 4.25707 22.6936C4.00286 22.5943 3.61833 22.4 3.40268 22.2619C2.91839 21.9518 2.66468 21.8958 2.32497 22.0241ZM7.28207 23.0753C6.81103 23.4254 6.8567 24.021 7.3761 24.3008C7.61428 24.429 7.80198 24.4497 8.73284 24.4499C9.98028 24.4503 10.251 24.3718 10.4491 23.9529C10.6121 23.6083 10.5323 23.3094 10.2141 23.0728C9.96872 22.8905 9.92162 22.8844 8.74972 22.8844C7.57368 22.8844 7.53148 22.8899 7.28207 23.0753Z" fill="#838383"/>
</svg>
