<svg width="22" height="22" viewBox="0 0 22 22" fill="#818181" xmlns="http://www.w3.org/2000/svg">
<path fill-rule="evenodd" clip-rule="evenodd" d="M7 8C7 10.2091 8.79086 12 11 12C13.2091 12 15 10.2091 15 8C15 5.79086 13.2091 4 11 4C8.79086 4 7 5.79086 7 8ZM9 8C9 9.10457 9.89543 10 11 10C12.1046 10 13 9.10457 13 8C13 6.89543 12.1046 6 11 6C9.89543 6 9 6.89543 9 8Z"/>
<path fill-rule="evenodd" clip-rule="evenodd" d="M11 0C17.0751 0 22 4.92487 22 11C22 17.0751 17.0751 22 11 22C4.92487 22 0 17.0751 0 11C0 4.92487 4.92487 0 11 0ZM20 11C20 13.0902 19.2875 15.014 18.092 16.5417C16.4476 14.3889 13.8537 13 10.9355 13C8.05517 13 5.49084 14.3531 3.8435 16.4583C2.68697 14.9443 2 13.0524 2 11C2 6.02944 6.02944 2 11 2C15.9706 2 20 6.02944 20 11ZM11 20C13.1502 20 15.1243 19.2459 16.6723 17.9878C15.4065 16.1812 13.3089 15 10.9355 15C8.59156 15 6.51667 16.1521 5.24623 17.9209C6.80613 19.2191 8.81187 20 11 20Z"/>
</svg>
