<svg width="32" height="32" viewBox="0 0 32 32" fill="none" xmlns="http://www.w3.org/2000/svg">
<path fill-rule="evenodd" clip-rule="evenodd" d="M16.0001 13.3332C14.5273 13.3332 13.3334 14.5271 13.3334 15.9998C13.3334 17.4726 14.5273 18.6665 16.0001 18.6665C17.4728 18.6665 18.6667 17.4726 18.6667 15.9998C18.6667 14.5271 17.4728 13.3332 16.0001 13.3332ZM10.6667 15.9998C10.6667 13.0543 13.0546 10.6665 16.0001 10.6665C18.9456 10.6665 21.3334 13.0543 21.3334 15.9998C21.3334 18.9454 18.9456 21.3332 16.0001 21.3332C13.0546 21.3332 10.6667 18.9454 10.6667 15.9998Z" fill="#896DC8"/>
<path fill-rule="evenodd" clip-rule="evenodd" d="M11.2089 6.05455C11.2089 4.18339 12.7258 2.6665 14.597 2.6665H16.5419C18.413 2.6665 19.9299 4.18339 19.9299 6.05455C19.9299 6.32573 20.1169 6.68753 20.5639 6.93026C20.7014 7.00495 20.837 7.08263 20.9707 7.1632C21.4164 7.43191 21.8349 7.41467 22.0806 7.27409C23.7123 6.34046 25.7917 6.8976 26.738 8.522L27.6772 10.1342C28.6254 11.7617 28.0658 13.85 26.431 14.7855C26.1939 14.9211 25.9711 15.266 25.9819 15.7793C25.9835 15.8527 25.9842 15.9262 25.9842 15.9998C25.9842 16.0735 25.9835 16.147 25.9819 16.2204C25.9711 16.7337 26.1939 17.0786 26.4309 17.2142C28.0658 18.1496 28.6253 20.238 27.6772 21.8655L26.7379 23.4777C25.7916 25.1021 23.7123 25.6592 22.0806 24.7256C21.8349 24.585 21.4164 24.5678 20.9707 24.8365C20.837 24.917 20.7014 24.9947 20.5639 25.0694C20.1169 25.3121 19.9299 25.6739 19.9299 25.9451C19.9299 27.8163 18.413 29.3332 16.5419 29.3332H14.597C12.7258 29.3332 11.2089 27.8163 11.2089 25.9451C11.2089 25.6739 11.0219 25.3121 10.575 25.0694C10.4375 24.9947 10.3018 24.917 10.1682 24.8365C9.72242 24.5678 9.30399 24.585 9.05831 24.7256C7.42658 25.6592 5.34727 25.1021 4.40094 23.4777L3.46168 21.8654C2.51354 20.2379 3.07308 18.1496 4.70793 17.2142C4.94495 17.0786 5.16781 16.7337 5.15695 16.2204C5.1554 16.147 5.15462 16.0735 5.15462 15.9998C5.15462 15.9262 5.1554 15.8527 5.15695 15.7793C5.1678 15.266 4.94494 14.9211 4.70791 14.7855C3.07304 13.8501 2.51349 11.7617 3.46164 10.1342L4.40087 8.522C5.34721 6.89761 7.42653 6.34048 9.05826 7.2741C9.30395 7.41468 9.7224 7.43192 10.1682 7.16321C10.3018 7.08263 10.4375 7.00496 10.575 6.93026C11.0219 6.68753 11.2089 6.32573 11.2089 6.05455ZM14.597 5.33317C14.1986 5.33317 13.8756 5.65614 13.8756 6.05455C13.8756 7.52928 12.935 8.68312 11.8477 9.27363C11.7453 9.32921 11.6444 9.38702 11.5449 9.447C10.4843 10.0864 9.01493 10.3216 7.73393 9.58868C7.37346 9.38242 6.9141 9.50551 6.70504 9.86436L5.76581 11.4766C5.56312 11.8245 5.68274 12.2709 6.03224 12.4709C7.31532 13.205 7.8492 14.5981 7.82302 15.8357C7.82186 15.8903 7.82128 15.945 7.82128 15.9998C7.82128 16.0547 7.82186 16.1094 7.82302 16.164C7.8492 17.4016 7.31533 18.7947 6.03226 19.5288C5.68278 19.7287 5.56316 20.1752 5.76585 20.5231L6.70511 22.1353C6.91416 22.4942 7.37351 22.6172 7.73397 22.411C9.01496 21.6781 10.4843 21.9133 11.5449 22.5527C11.6444 22.6127 11.7453 22.6705 11.8477 22.726C12.935 23.3166 13.8756 24.4704 13.8756 25.9451C13.8756 26.3435 14.1986 26.6665 14.597 26.6665H16.5419C16.9403 26.6665 17.2633 26.3435 17.2633 25.9451C17.2633 24.4704 18.2039 23.3166 19.2912 22.726C19.3935 22.6705 19.4945 22.6127 19.5939 22.5527C20.6546 21.9133 22.1239 21.6781 23.4049 22.411C23.7654 22.6173 24.2247 22.4942 24.4338 22.1353L25.373 20.5231C25.5757 20.1752 25.4561 19.7288 25.1066 19.5288C23.8235 18.7947 23.2897 17.4016 23.3158 16.164C23.317 16.1094 23.3176 16.0547 23.3176 15.9998C23.3176 15.945 23.317 15.8903 23.3158 15.8357C23.2897 14.5981 23.8235 13.205 25.1066 12.4709C25.4561 12.2709 25.5758 11.8245 25.3731 11.4765L24.4338 9.86436C24.2248 9.50549 23.7654 9.38241 23.4049 9.58867C22.1239 10.3216 20.6546 10.0864 19.594 9.44699C19.4945 9.38702 19.3935 9.32921 19.2912 9.27363C18.2039 8.68312 17.2633 7.52928 17.2633 6.05455C17.2633 5.65615 16.9403 5.33317 16.5419 5.33317H14.597Z" fill="#896DC8"/>
</svg>
